<?xml version="1.0" standalone="no"?>
<!DOCTYPE svg PUBLIC "-//W3C//DTD SVG 20010904//EN"
 "http://www.w3.org/TR/2001/REC-SVG-20010904/DTD/svg10.dtd">
<svg version="1.0" xmlns="http://www.w3.org/2000/svg"
 width="512.000000pt" height="512.000000pt" viewBox="0 0 512.000000 512.000000"
 preserveAspectRatio="xMidYMid meet">

<g transform="translate(0.000000,512.000000) scale(0.100000,-0.100000)"
fill="#000000" stroke="none">
<path d="M2070 3570 c-80 -10 -298 -37 -485 -59 -187 -22 -432 -52 -545 -65
-113 -14 -322 -39 -465 -55 -143 -17 -277 -36 -298 -41 -110 -31 -182 -180
-193 -400 -7 -125 10 -218 57 -320 l31 -69 -35 -83 c-47 -108 -61 -196 -54
-323 6 -106 25 -181 62 -255 23 -46 23 -46 4 -70 -163 -206 -196 -710 -65
-986 46 -96 79 -139 133 -171 46 -27 88 -32 1553 -203 190 -22 553 -65 808
-95 l463 -55 292 35 c161 19 304 37 320 40 l27 4 0 -170 0 -171 29 -29 c60
-60 92 -35 206 156 47 80 89 145 93 145 4 0 43 -47 86 -105 114 -154 142 -170
197 -116 l29 29 0 169 0 169 113 12 c61 7 229 27 372 44 251 31 261 33 288 59
15 15 27 37 27 49 0 27 -52 80 -77 80 -47 0 -106 104 -139 245 -27 113 -27
369 0 475 37 146 87 229 148 244 82 19 90 124 11 150 -39 13 -54 33 -79 106
-27 78 -27 282 0 360 23 66 44 100 61 100 8 0 27 12 44 26 51 42 35 115 -28
129 -35 7 -51 30 -77 105 -27 78 -27 282 0 360 23 66 44 100 62 100 7 0 25 11
40 23 37 32 37 81 2 112 -27 23 -23 22 -428 69 -118 14 -656 78 -1195 142
-1087 128 -1164 134 -1395 104z m-1027 -463 c-1 -4 -4 -21 -8 -37 -5 -23 -12
-30 -31 -30 -14 0 -35 -11 -48 -24 -20 -19 -25 -38 -31 -112 -8 -87 -1 -262
12 -312 l6 -25 -59 7 c-119 14 -120 15 -132 54 -25 84 -35 180 -29 282 5 97
27 200 48 225 9 12 275 -15 272 -28z m3792 -34 c-14 -37 -34 -170 -35 -235 0
-76 21 -197 44 -253 9 -21 14 -40 12 -43 -3 -2 -130 -20 -283 -38 -433 -52
-746 -90 -1158 -139 l-379 -46 -18 23 c-36 48 -53 136 -52 268 0 104 4 135 22
181 37 92 18 85 302 119 140 16 350 41 465 55 116 14 381 46 590 71 209 24
387 46 395 48 8 2 35 4 59 5 37 1 42 -1 36 -16z m-3755 -683 c1042 -122 974
-113 978 -133 3 -13 -3 -17 -28 -17 -76 0 -100 -45 -107 -204 -3 -76 0 -141
11 -206 8 -52 14 -96 12 -97 -2 -3 -581 64 -1106 127 -91 11 -244 29 -340 40
-161 19 -177 23 -197 45 -73 82 -82 342 -17 484 l24 53 42 -6 c24 -3 351 -42
728 -86z m3755 -37 c-14 -37 -34 -170 -35 -235 0 -76 21 -195 45 -252 9 -21
14 -40 12 -43 -7 -6 -79 -15 -517 -68 -206 -24 -583 -69 -837 -100 -254 -30
-464 -55 -467 -55 -12 0 -47 83 -62 147 -30 125 -5 325 49 396 10 13 120 29
607 87 327 39 714 86 860 104 146 19 285 34 309 35 37 1 42 -1 36 -16z m-2172
-148 c73 -9 146 -18 163 -20 l32 -5 -26 -78 c-23 -68 -26 -93 -26 -217 0 -99
5 -157 16 -197 16 -58 16 -58 -5 -58 -51 0 -351 40 -359 48 -5 5 -16 46 -24
93 -23 116 -15 289 17 382 27 79 12 75 212 52z m-2251 -456 c76 -10 88 -14 83
-28 -100 -243 -120 -533 -59 -829 8 -40 18 -80 21 -89 6 -14 -2 -15 -68 -9
-41 4 -83 13 -95 21 -32 21 -90 141 -110 230 -26 112 -26 358 0 470 23 98 58
181 93 218 31 31 21 30 135 16z m395 -52 c3 -3 -7 -41 -21 -84 -44 -134 -57
-211 -62 -383 -3 -113 -1 -193 9 -253 l13 -87 -70 3 -71 4 -11 41 c-7 22 -17
80 -23 129 -27 220 -2 417 75 591 l24 55 66 -6 c36 -2 68 -7 71 -10z m731 -81
c292 -34 534 -65 537 -68 3 -3 -6 -45 -20 -94 -70 -240 -72 -550 -5 -791 12
-43 14 -63 6 -63 -18 0 -1049 120 -1072 125 -16 4 -27 25 -52 107 -17 57 -37
144 -43 193 -15 121 -6 327 20 432 20 80 78 223 90 223 3 0 246 -29 539 -64z
m3259 17 c-2 -10 -16 -57 -30 -105 -71 -240 -60 -529 28 -740 15 -35 29 -70
31 -78 4 -13 -34 -20 -251 -46 l-255 -30 2 240 3 241 39 6 c66 11 95 67 60
117 -31 45 -34 45 -426 -3 -361 -44 -374 -46 -395 -71 -25 -28 -29 -70 -9 -96
15 -20 64 -41 77 -32 5 3 9 -92 9 -235 l0 -241 -22 -4 c-13 -3 -160 -22 -327
-41 l-303 -36 -25 23 c-35 31 -77 126 -99 223 -14 60 -19 119 -19 235 0 173
17 270 65 375 47 103 33 98 380 139 582 70 886 107 1155 140 332 41 319 41
312 19z m-2405 -122 c4 -3 -2 -31 -12 -61 -38 -114 -52 -204 -56 -380 -3 -119
-1 -203 9 -263 7 -49 11 -90 8 -91 -7 -5 -133 13 -139 19 -13 13 -33 146 -39
256 -8 163 8 293 54 432 l36 107 66 -6 c36 -4 69 -9 73 -13z m331 -33 c91 -10
108 -14 103 -27 -2 -9 -16 -44 -31 -79 -57 -136 -68 -203 -69 -397 -1 -190 13
-287 56 -403 11 -29 18 -55 16 -57 -1 -1 -49 2 -106 8 -119 12 -113 6 -163
155 -41 121 -52 220 -46 396 5 152 28 276 72 379 18 43 13 42 168 25z"/>
</g>
</svg>
